<?xml version="1.0" encoding="utf-8"?>
<!-- Generator: Adobe Illustrator 12.0.0, SVG Export Plug-In  -->
<!DOCTYPE svg PUBLIC "-//W3C//DTD SVG 1.1//EN" "http://www.w3.org/Graphics/SVG/1.1/DTD/svg11.dtd" [
	<!ENTITY ns_flows "http://ns.adobe.com/Flows/1.0/">
	<!ENTITY ns_svg "http://www.w3.org/2000/svg">
	<!ENTITY ns_xlink "http://www.w3.org/1999/xlink">
]>
<svg  version="1.1" xmlns="&ns_svg;" xmlns:xlink="&ns_xlink;" xmlns:a="http://ns.adobe.com/AdobeSVGViewerExtensions/3.0/"
	 width="91" height="111" viewBox="-0.891 -0.5 91 111" enable-background="new -0.891 -0.5 91 111" xml:space="preserve">
<defs>
</defs>
<path fill-rule="evenodd" clip-rule="evenodd" fill="#808284" d="M39.883,78.707c0,1.333,0.859,2.133,1.412,3.177
	c-1.63-0.436-3.553-3.757-3.818-4.677c-0.768-2.664,0.305-4.731,1.039-6.926c0.561-1.678,3.521-11.391,4.896-12.397
	c0.309,1.325,1.015,2.865,1.502,4.145l2.383,6.441c1.806,5.175,2.616,7.475,0.291,10.884c-0.744,1.092-1.379,2.16-2.764,2.53
	c1.148-1.715,1.411-0.84,1.411-3.883c0-1.059-1.702-5.417-2.139-6.684c-0.514-1.488,0.042-1.404-1.39-1.787
	C42.114,72.074,39.883,76.251,39.883,78.707L39.883,78.707z M52.236,35.648c1.001-0.48,2.646-0.07,3.854,0.38
	c4.697,1.748,4.659,7.044,5.12,10.41c1.145,8.357,4.25,30.371,3.766,36.537c-0.225,2.858-0.178,3.947-4.265,5.973
	c-1.364,0.676-2.062,0.982-3.753,1.542c-1.154,0.382-3.169,0.87-4.017,1.277v-4.235c-2.513-1.683-2.077-0.616-2.118-2.471
	c1.379-0.662,4.482-0.045,5.294-3.53h-2.471c5.975-11.29,7.792-20.584-0.249-31.516l-2.927-3.779c1.484,0,1.426,0.149,2.471-0.353
	c-2.046-3.055-2.118,0.916-2.118-6.706h3.882c-0.104-1.249-0.154-1.21-0.995-1.828C52.138,36.192,52.545,37.459,52.236,35.648
	L52.236,35.648z M31.412,39.177h4.235c0,9.521-1.108,2.927-2.118,6.706c0.981,0.471,0.684,0.353,2.118,0.353
	c-0.842,1.258-1.751,2.265-2.685,3.669c-0.94,1.415-1.579,2.411-2.463,3.89c-7.556,12.646,1.292,24.825,1.971,27.735H30
	c2.843,5.373,5.342,1.278,5.647,4.941c-3.055,0.255-2.118,2.722-2.118,5.295c-3.947-0.92-12.353-3.069-12.353-8.118
	c0-8.798,0.355-8.752,1.348-17.005c0.531-4.409,1.007-8.358,1.628-12.843c0.862-6.229,0.483-13.913,4.371-16.806
	c1.173-0.873,3.847-2.073,5.359-1.347C33.593,38.292,32.089,36.27,31.412,39.177L31.412,39.177z M30.706,24.707
	c2.748,1.318,3.179-0.982,2.953,3.231c-0.067,1.25,0.541,1.438-0.833,1.689c-1.251,0.229-1.881,0.071-3.179,0.373
	c-1.056,4.533,0.119,2.249-3.186,4.579c-1.441,1.016-2.854,2.674-3.634,4.484C21.363,42.46,19.31,61.571,18.6,66.954
	c-0.79,5.988-1.659,10.479-1.659,16.694c0,3.59,2.026,6.677,4.652,8.407c4.791,3.157,1.407,2.14,0.642,5.005
	c-1.477-0.123-1.081-0.284-2.13-1.046c-0.688-0.499-1.132-0.761-1.836-1.341c-3.637-2.996-6.79-6.3-9.302-10.463
	c-10.61-17.587-6.145-40.32,9.688-52.144c2.611-1.95,6.757-4.773,10.287-5.596c-0.316-1.186-1.097-1.353-2.352-1.926
	c-1.368-0.624-1.205-0.424-2.708,0.376c-1.978,1.053-3.464,2.059-5.246,3.244C7.916,35.292,0,47.899,0,61.06
	c0,8.211,0.438,13.648,4.115,20.944c3.555,7.053,7.926,12.371,14.239,16.82c1.008,0.711,2.349,1.128,2.881,2.413
	c0.553,1.335,0.463,2.408,1.489,3.805c4.198,5.715,36.925,6.362,41.161-0.567c0.314-0.515,0.542-1.021,0.747-1.723
	c0.116-0.396,0.171-0.828,0.266-1.147c0.586-1.976,6.025-4.233,9.311-7.982c7.438-8.489,12.263-17.851,12.263-30.092
	c0-10.317-3.485-18.641-7.766-24.705c-2.271-3.217-4.838-5.772-7.868-8.368c-1.265-1.083-8.621-6.104-10.131-6.104
	c-1.413,0-1.755,0.727-3.177,1.059v1.059c7.046,1.641,16.554,10.623,20.228,17.185c7.128,12.73,7.154,29.143-0.812,41.056
	c-2.19,3.275-8.883,11.326-12.71,12.349c-1.678-2.506-1.695-1.365-2.118-3.177c0.947-1.293,7.412-3.331,7.412-11.294l-3.424-27.636
	c-0.34-2.581-0.565-4.345-0.876-6.888c-0.252-2.063-0.518-4.701-1.058-6.707c-1.224-4.543-3.518-6.507-7.349-8.534
	c0-3.435-0.146-3.177-4.235-3.177v-4.235c0.876-0.204,3.177-0.251,3.177-1.059c0-1.519-0.487-1.732-1.615-2.268
	c-0.98-0.466-1.91-0.669-2.959-0.923c-4.383-1.058-15.644-1.068-19.439,1.07C30.454,22.964,30.433,23.417,30.706,24.707z"/>
<path fill-rule="evenodd" clip-rule="evenodd" fill="#808284" d="M45.354,17.294L46.06,3.882C44.374,3.433,42.24,0.488,40.412,0
	c0.261,3.133,0.844,6.496,1.071,9.87C42.093,18.92,42.163,17.294,45.354,17.294z"/>
<path fill-rule="evenodd" clip-rule="evenodd" fill="#808284" d="M27.353,13.412c1.787,0.945,5.309,4.355,7.765,6
	c0.746-1.115,1.023-1.07,1.765-2.471l-6.856-8.32C28.427,6.581,28.488,6.303,27.353,6V13.412z"/>
<path fill-rule="evenodd" clip-rule="evenodd" fill="#808284" d="M49.235,16.941c0.747,1.115,1.024,1.07,1.766,2.471
	c1.539-0.814,2.603-1.913,4.031-3.027c0.747-0.583,1.344-0.97,2.016-1.514c1.024-0.831,0.825-0.8,2.07-1.459V6.706
	c-1.224,0.327-3.01,2.834-5.034,4.848L49.235,16.941z"/>
</svg>
